<?xml version="1.0" encoding="iso-8859-1"?>
<!-- Generator: Adobe Illustrator 19.0.0, SVG Export Plug-In . SVG Version: 6.00 Build 0)  -->
<svg version="1.1" id="Layer_1" xmlns="http://www.w3.org/2000/svg" xmlns:xlink="http://www.w3.org/1999/xlink" x="0px" y="0px"
	 viewBox="0 0 502.001 502.001" style="enable-background:new 0 0 502.001 502.001;" xml:space="preserve">
<g>
	<g>
		<g>
			<path d="M497.78,196.909L256.83,24.03c-3.484-2.5-8.175-2.5-11.659,0L4.22,196.909C1.595,198.731,0,201.889,0,205.07v264.694
				c-0.052,5.448,4.533,10.082,10,10.082h482c4.898,0,9.199-3.744,9.896-8.576c0.072-0.498,0.109-1.004,0.104-1.507V205.07
				C502,201.888,500.406,198.732,497.78,196.909z M245.597,195.07H41.092L251,44.463l225.6,161.865L336.768,346.16l-79.938-57.354
				c-3.464-2.486-8.239-2.454-11.659,0l-79.938,57.354L34.143,215.07h211.454c5.523,0,10-4.477,10-10S251.12,195.07,245.597,195.07z
				 M20,229.212l128.764,128.764L49.776,429L20,450.363V229.212z M41.092,459.846l1.608-1.154L251,309.239l208.301,149.453
				l1.608,1.154H41.092z M482,450.363L452.225,429l-98.989-71.024L482,229.212V450.363z"/>
			<path d="M138.727,410.927l-12.435,8.921c-10.711,7.685,1.48,23.554,11.659,16.25l12.435-8.921
				c4.487-3.219,5.515-9.467,2.295-13.955C149.462,408.736,143.215,407.707,138.727,410.927z"/>
			<path d="M244.09,335.33l-71.327,51.176c-10.711,7.685,1.479,23.552,11.659,16.25l71.327-51.176
				c4.488-3.22,5.516-9.467,2.296-13.955C254.826,333.137,248.579,332.11,244.09,335.33z"/>
			<path d="M257.203,336.45c-0.012-0.016-0.026-0.036-0.035-0.049C257.179,336.416,257.189,336.431,257.203,336.45z"/>
			<path d="M257.168,336.402C257.107,336.317,257.097,336.303,257.168,336.402L257.168,336.402z"/>
			<path d="M258.774,338.64c0.034,0.048,0.065,0.09,0.091,0.127C258.84,338.732,258.809,338.689,258.774,338.64z"/>
			<path d="M258.865,338.767C259.019,338.982,258.994,338.947,258.865,338.767L258.865,338.767z"/>
			<path d="M257.203,336.45c0.121,0.168,0.379,0.528,0.843,1.175c0.351,0.489,0.582,0.811,0.728,1.015
				C258.372,338.08,257.482,336.839,257.203,336.45z"/>
			<path d="M293.148,215.07h23.776c5.523,0,10-4.477,10-10s-4.477-10-10-10h-23.776c-5.523,0-10,4.477-10,10
				S287.625,215.07,293.148,215.07z"/>
		</g>
	</g>
</g>
<g>
</g>
<g>
</g>
<g>
</g>
<g>
</g>
<g>
</g>
<g>
</g>
<g>
</g>
<g>
</g>
<g>
</g>
<g>
</g>
<g>
</g>
<g>
</g>
<g>
</g>
<g>
</g>
<g>
</g>
</svg>
